<svg width="25" height="24" viewBox="0 0 25 24" fill="none" xmlns="http://www.w3.org/2000/svg">
<path d="M12.5988 23C11.0554 21.6835 9.62474 20.2402 8.32187 18.6852C6.36669 16.35 4.04492 12.8722 4.04492 9.55818C4.04408 7.86568 4.54534 6.21097 5.48527 4.80347C6.4252 3.39596 7.76155 2.29893 9.3252 1.6512C10.8888 1.00348 12.6095 0.834177 14.2694 1.16473C15.9293 1.49527 17.4538 2.31081 18.6501 3.50813C19.4465 4.30103 20.0778 5.24401 20.5074 6.28249C20.9369 7.32098 21.1563 8.43435 21.1527 9.55818C21.1527 12.8722 18.8309 16.35 16.8758 18.6852C15.5729 20.2402 14.1422 21.6835 12.5988 23ZM12.5988 5.89222C11.6265 5.89222 10.6941 6.27846 10.0066 6.96596C9.31909 7.65346 8.93286 8.58591 8.93286 9.55818C8.93286 10.5304 9.31909 11.4629 10.0066 12.1504C10.6941 12.8379 11.6265 13.2241 12.5988 13.2241C13.5711 13.2241 14.5035 12.8379 15.191 12.1504C15.8785 11.4629 16.2648 10.5304 16.2648 9.55818C16.2648 8.58591 15.8785 7.65346 15.191 6.96596C14.5035 6.27846 13.5711 5.89222 12.5988 5.89222Z" fill="#FA8B02"/>
</svg>
