<svg width="25" height="24" viewBox="0 0 25 24" fill="none" xmlns="http://www.w3.org/2000/svg">
<g clip-path="url(#clip0_201_28594)">
<path d="M10.2458 13.7601C11.6374 15.1718 13.3213 16.2618 15.1791 16.9534L17.6925 14.9534C17.767 14.9021 17.8553 14.8746 17.9458 14.8746C18.0363 14.8746 18.1246 14.9021 18.1991 14.9534L22.8658 17.9601C23.043 18.0666 23.1929 18.2128 23.3039 18.3873C23.4148 18.5617 23.4836 18.7595 23.505 18.9652C23.5263 19.1708 23.4996 19.3785 23.4268 19.572C23.3541 19.7655 23.2373 19.9394 23.0858 20.0801L20.8991 22.2401C20.586 22.5495 20.2011 22.7766 19.7788 22.901C19.3565 23.0255 18.91 23.0435 18.4791 22.9534C14.1806 22.0656 10.2185 19.9864 7.04578 16.9534C3.94344 13.8902 1.79663 9.99264 0.865784 5.7334C0.773828 5.30916 0.793021 4.86836 0.921502 4.45372C1.04998 4.03908 1.28339 3.66465 1.59912 3.36674L3.86578 1.18007C4.00605 1.03593 4.17711 0.925387 4.36615 0.856722C4.55519 0.788057 4.75732 0.763049 4.95739 0.78357C5.15747 0.80409 5.35031 0.869608 5.52148 0.975217C5.69264 1.08083 5.8377 1.22379 5.94579 1.3934L9.05245 6.00007C9.10604 6.07241 9.13496 6.16005 9.13496 6.25007C9.13496 6.34009 9.10604 6.42773 9.05245 6.50007L7.00578 8.96007C7.71617 10.7807 8.82294 12.4204 10.2458 13.7601Z" fill="#FA8B02"/>
</g>
<defs>
<clipPath id="clip0_201_28594">
<rect width="24" height="24" fill="white" transform="translate(0.0996094)"/>
</clipPath>
</defs>
</svg>
