<svg width="24" height="18" viewBox="0 0 24 18" fill="none" xmlns="http://www.w3.org/2000/svg">
<path d="M7.92817 4.73357C8.62437 2.29287 10.0301 1.07252 12.06 1.09253C14.0246 1.11253 15.4277 2.36356 16.0705 4.7389C16.1559 4.49483 16.2119 4.32545 16.2732 4.1574C16.752 2.86637 17.679 2.09681 19.042 1.98478C20.2957 1.88342 21.3093 2.43424 21.9415 3.52256C22.6257 4.69356 22.5484 5.87523 21.7401 6.96087C21.46 7.33565 21.4827 7.43701 21.8988 7.64774C23.2966 8.35194 23.9821 9.52694 23.9968 11.0887C24.0154 13.0039 24.0141 13.0053 22.1656 13.6134C21.6827 13.7846 21.1821 13.9004 20.6732 13.9589C20.3677 13.9869 20.125 13.8869 20.077 13.5681C20.029 13.2493 20.2317 13.068 20.5304 13.0186C21.2556 12.91 21.9627 12.7036 22.6324 12.4051C22.8098 12.3237 23.0325 12.2717 23.0325 12.0117C23.0325 11.2808 23.1259 10.5366 22.7924 9.84703C22.3803 8.99479 21.7321 8.40796 20.7705 8.29326C19.7753 8.18857 18.7721 8.18588 17.7763 8.28525C17.5118 8.31699 17.2544 8.39272 17.0148 8.50932C16.2346 8.86275 16.2252 8.98145 16.8134 9.6003C17.6173 10.417 18.0896 11.5029 18.1391 12.6478C18.1631 13.1813 18.0831 13.7228 18.1604 14.2483C18.2938 15.1192 17.8804 15.502 17.1255 15.8194C13.5138 17.3372 9.95809 17.2718 6.41841 15.5967C5.99562 15.3966 5.81423 15.1446 5.84758 14.6738C5.88492 14.1403 5.86225 13.6068 5.84758 13.0733C5.82357 11.6062 6.32638 10.3685 7.41603 9.39891C7.7788 9.07615 7.66143 8.93211 7.35468 8.71604C6.34505 8.00384 3.08679 8.01985 2.08917 8.75205C1.18891 9.41758 0.667427 10.9834 0.971514 12.0557C1.04087 12.2957 1.23826 12.3438 1.40764 12.4211C2.0365 12.7034 2.7011 12.8982 3.38287 12.9999C3.69763 13.0466 3.96704 13.1827 3.92303 13.5454C3.87368 13.9455 3.56026 13.9962 3.21749 13.9455C2.19586 13.7948 1.24493 13.4307 0.321995 12.9826C0.237409 12.9512 0.163762 12.896 0.110012 12.8235C0.0562626 12.751 0.0247269 12.6645 0.0192411 12.5745C0.0312446 11.5369 -0.132802 10.4859 0.321995 9.48693C0.691358 8.64329 1.36045 7.96659 2.19987 7.58772C2.46661 7.46369 2.59998 7.397 2.35724 7.08358C1.46365 5.95525 1.34629 4.72423 2.0905 3.48254C2.73602 2.40624 3.75364 1.86341 5.00734 1.99145C6.48909 2.14216 7.41869 3.02108 7.81881 4.45482C7.83615 4.51751 7.86949 4.57619 7.92817 4.73357ZM12.004 9.12816C11.4705 9.12816 10.937 9.10949 10.4035 9.12816C9.46236 9.17333 8.57244 9.57026 7.91 10.2404C7.24755 10.9105 6.86087 11.8049 6.82652 12.7465C6.81185 13.1907 6.85587 13.6388 6.80785 14.0802C6.75184 14.5937 6.98124 14.8285 7.4307 15.0138C10.3155 16.1902 13.215 16.2542 16.1385 15.1819C17.1935 14.7938 17.1895 14.7818 17.1882 13.6868C17.1882 13.376 17.1882 13.0653 17.1802 12.7532C17.1465 11.8112 16.7604 10.9161 16.0981 10.2453C15.4359 9.57442 14.546 9.17669 13.6045 9.13083C13.071 9.10816 12.5375 9.12816 12.004 9.12816ZM15.0542 5.08034C15.0494 4.27102 14.7234 3.49674 14.1477 2.92784C13.5721 2.35895 12.794 2.04203 11.9847 2.0468C11.1753 2.05158 10.4011 2.37766 9.83218 2.95331C9.26328 3.52896 8.94636 4.30703 8.95113 5.11635C8.9618 6.76082 10.3862 8.17456 12.0213 8.16122C13.6565 8.14788 15.0716 6.72481 15.0542 5.08034ZM4.7766 7.25162C5.34942 7.24389 5.89579 7.00926 6.29584 6.59921C6.69589 6.18916 6.91696 5.63717 6.91055 5.06433C6.89054 3.89333 5.87692 2.89838 4.71659 2.91972C3.55625 2.94106 2.5493 3.97469 2.5693 5.12435C2.5867 5.6969 2.82734 6.23995 3.23979 6.63745C3.65224 7.03495 4.2038 7.25537 4.7766 7.25162ZM19.2541 7.25162C19.8266 7.24792 20.375 7.02084 20.7826 6.61877C21.1901 6.2167 21.4246 5.6714 21.436 5.09901C21.4216 4.52668 21.1886 3.98161 20.7847 3.5758C20.3809 3.16999 19.837 2.93426 19.2648 2.91705C18.6913 2.92769 18.1444 3.1606 17.7393 3.56665C17.3343 3.97271 17.1027 4.5202 17.0935 5.09367C17.0949 5.66615 17.323 6.21475 17.7279 6.61943C18.1329 7.02411 18.6816 7.2519 19.2541 7.25296V7.25162ZM9.46995 8.2039C8.62479 7.46799 8.08493 6.44297 7.95618 5.32974C7.80947 5.76853 7.75346 6.03394 7.63609 6.26334C7.4427 6.64879 6.96923 7.09025 7.05726 7.37033C7.15462 7.68775 7.80014 7.79578 8.10022 8.09987C8.51901 8.52799 8.90312 8.58934 9.46995 8.2039ZM14.474 8.27725C14.9529 8.33727 15.2423 8.71204 15.601 8.35194C15.9425 8.00259 16.3507 7.72546 16.8014 7.53704C17.0001 7.45568 17.1201 7.36099 16.9227 7.1596C16.468 6.6968 16.2852 6.09263 16.0345 5.33107C15.8878 6.58343 15.3476 7.45568 14.4727 8.27725H14.474Z" fill="#FA8B02" stroke="#FA8B02" stroke-width="0.5"/>
</svg>
