<svg width="41" height="28" viewBox="0 0 41 28" fill="none" xmlns="http://www.w3.org/2000/svg">
<path d="M40.749 9.9933C40.61 18.5261 35.9306 25.1324 28.2008 27.6906C28.0155 27.7477 27.8487 27.8048 27.6708 27.8545C26.5885 28.1639 25.7212 27.9079 25.2115 27.1326C24.7019 26.3572 24.7853 25.4474 25.5192 24.6038C26.9023 23.032 28.0747 21.2887 29.0069 19.4175C29.5258 18.3677 29.5314 18.3695 28.451 18.038C24.5481 16.8372 21.9332 13.1058 22.0481 8.90115C22.1574 4.88984 25.0892 1.28923 29.0551 0.289165C31.0146 -0.216405 33.0871 -0.0653877 34.9514 0.7188C36.8157 1.50299 38.3676 2.87654 39.3665 4.62647C40.3227 6.25194 40.8017 8.11113 40.749 9.9933Z" fill="#FA8B02"/>
<path d="M19.4593 10.032C19.3333 18.6422 14.4723 25.3719 6.63127 27.7901C6.06418 27.9743 5.50636 28.105 4.91333 27.8932C3.56418 27.4107 3.19724 25.8231 4.21096 24.6499C5.66321 22.9793 6.89676 21.1327 7.8822 19.1542C8.18798 18.5372 8.12867 18.2977 7.40406 18.0878C5.42854 17.5195 3.70088 16.3112 2.49573 14.655C1.29058 12.9988 0.677107 10.9897 0.75284 8.94722C0.901098 4.78857 3.94409 1.13455 8.00451 0.237624C10.0069 -0.228129 12.1085 -0.0139619 13.9741 0.845953C15.8397 1.70587 17.3617 3.16198 18.2973 4.98195C19.1387 6.58795 19.4871 8.1037 19.4593 10.032Z" fill="#FA8B02"/>
</svg>
