<svg width="24" height="24" viewBox="0 0 24 24" fill="none" xmlns="http://www.w3.org/2000/svg">
<path d="M2.85742 7.42861H21.1431M5.14314 2.85718H18.8574C19.4636 2.85718 20.045 3.09799 20.4737 3.52665C20.9023 3.9553 21.1431 4.53668 21.1431 5.14289V18.8572C21.1431 19.4634 20.9023 20.0448 20.4737 20.4734C20.045 20.9021 19.4636 21.1429 18.8574 21.1429H5.14314C4.53693 21.1429 3.95555 20.9021 3.52689 20.4734C3.09824 20.0448 2.85742 19.4634 2.85742 18.8572V5.14289C2.85742 4.53668 3.09824 3.9553 3.52689 3.52665C3.95555 3.09799 4.53693 2.85718 5.14314 2.85718V2.85718Z" stroke="#FA8B02" stroke-linecap="round" stroke-linejoin="round"/>
<path d="M12.0003 13.1429C12.6315 13.1429 13.1431 12.6312 13.1431 12C13.1431 11.3689 12.6315 10.8572 12.0003 10.8572C11.3691 10.8572 10.8574 11.3689 10.8574 12C10.8574 12.6312 11.3691 13.1429 12.0003 13.1429Z" fill="#FA8B02"/>
<path d="M7.42801 13.1429C8.0592 13.1429 8.57087 12.6312 8.57087 12C8.57087 11.3689 8.0592 10.8572 7.42801 10.8572C6.79683 10.8572 6.28516 11.3689 6.28516 12C6.28516 12.6312 6.79683 13.1429 7.42801 13.1429Z" fill="#FA8B02"/>
<path d="M16.5706 13.1429C17.2018 13.1429 17.7134 12.6312 17.7134 12C17.7134 11.3689 17.2018 10.8572 16.5706 10.8572C15.9394 10.8572 15.4277 11.3689 15.4277 12C15.4277 12.6312 15.9394 13.1429 16.5706 13.1429Z" fill="#FA8B02"/>
<path d="M12.0003 17.7143C12.6315 17.7143 13.1431 17.2026 13.1431 16.5714C13.1431 15.9403 12.6315 15.4286 12.0003 15.4286C11.3691 15.4286 10.8574 15.9403 10.8574 16.5714C10.8574 17.2026 11.3691 17.7143 12.0003 17.7143Z" fill="#FA8B02"/>
<path d="M7.42801 17.7143C8.0592 17.7143 8.57087 17.2026 8.57087 16.5715C8.57087 15.9403 8.0592 15.4286 7.42801 15.4286C6.79683 15.4286 6.28516 15.9403 6.28516 16.5715C6.28516 17.2026 6.79683 17.7143 7.42801 17.7143Z" fill="#FA8B02"/>
<path d="M16.5706 17.7143C17.2018 17.7143 17.7134 17.2026 17.7134 16.5714C17.7134 15.9403 17.2018 15.4286 16.5706 15.4286C15.9394 15.4286 15.4277 15.9403 15.4277 16.5714C15.4277 17.2026 15.9394 17.7143 16.5706 17.7143Z" fill="#FA8B02"/>
</svg>
